<svg width="131" height="52" viewBox="0 0 131 52" fill="none" xmlns="http://www.w3.org/2000/svg">
<g clip-path="url(#clip0_126_179)">
<path d="M36.1459 20.6182H30.348V23.8681H36.5359V31.408H30.348V34.8659H36.1459C38.5119 34.8659 40.7998 32.7859 40.7998 29.926V25.5581C40.7998 22.9061 38.4339 20.6182 36.1459 20.6182Z" fill="#1D1E1C"/>
<path d="M106.397 24.0761V20.6182H97.0107C94.6448 20.6182 92.3568 22.6981 92.3568 25.5581V29.9C92.3568 32.5779 94.7228 34.8399 97.0107 34.8399H106.397V31.59H96.6207V24.0761H106.397Z" fill="#1D1E1C"/>
<path d="M45.1158 25.5063V29.9522C45.1158 32.6302 47.5858 34.8921 49.7698 34.8921H59.0516V31.6422H49.3538V29.0682H54.5017L55.7756 26.4943H49.4578V24.1283H59.1556V20.6704V20.5664H49.7698C47.3778 20.5664 45.1158 22.6464 45.1158 25.5063Z" fill="#1D1E1C"/>
<path d="M63.7574 25.5063V29.9522C63.7574 32.6302 65.7854 34.8661 67.9694 34.8661L67.9954 31.6162V29.0682H73.1433L74.4172 26.4943H68.0994V24.1283H77.7972V20.6704V20.5664H68.4114C66.0454 20.5664 63.7574 22.6464 63.7574 25.5063Z" fill="#1D1E1C"/>
<path d="M79.8511 29.0681H86.7669L87.9369 26.3901H81.0211L79.8511 29.0681Z" fill="#1D1E1C"/>
<path d="M24.8102 25.5583V26.2863V30.0042C24.8102 32.6822 26.8381 34.9181 29.0221 34.9181L29.0481 33.2542V26.2863V20.6704H24.8102V25.5583Z" fill="#1D1E1C"/>
<path d="M128.21 38.844L122.438 36.452L122.516 36.2441C124.206 31.5901 124.414 26.5722 123.114 21.7883C121.268 14.9505 116.536 9.33458 110.166 6.31864L109.958 6.21464L112.35 0.46875L112.558 0.572748C120.384 4.18668 126.338 10.9985 128.86 19.2664C130.784 25.5583 130.576 32.4481 128.288 38.636L128.21 38.844ZM123.036 36.1921L127.95 38.22C130.134 32.1881 130.29 25.5063 128.444 19.3704C125.974 11.3105 120.228 4.65467 112.61 1.06674L110.582 5.98064C116.978 9.07458 121.71 14.7685 123.582 21.6583C124.882 26.4942 124.7 31.5121 123.036 36.1921Z" fill="#FFDC00"/>
<path d="M17.2964 51.8438C9.60051 48.0738 3.88062 41.236 1.56666 32.9161C-0.227304 26.5983 0.136689 19.8384 2.55464 13.7285L7.83254 16.0685C6.01258 20.7484 5.70058 25.7663 6.89656 30.6542C8.61252 37.6481 13.2144 43.3939 19.6103 46.5659L17.2964 51.8438Z" fill="#FFDC00"/>
</g>
<defs>
<clipPath id="clip0_126_179">
<rect width="129.997" height="51.375" fill="white" transform="translate(0.188721 0.46875)"/>
</clipPath>
</defs>
</svg>
