<svg width="56" height="40" viewBox="0 0 56 40" fill="none" xmlns="http://www.w3.org/2000/svg">
<path d="M18.1 40C12.7 39.8 7.7 37.3 4.2 33.1C1.6 29.9 0.1 25.9 0 21.7H3.6C3.7 24.9 4.8 27.8 6.7 30.3C9.5 33.9 13.6 36 18.1 36.3V40Z" fill="#FFDC00"/>
<path d="M55.9 20.1L52.3 19.7C52.6 15.2 50.9 10.9 47.7 7.7C45.4 5.5 42.6 4.1 39.5 3.6L39.9 0C44 0.6 47.8 2.6 50.7 5.6C54.4 9.5 56.3 14.7 55.9 20.1Z" fill="#FFDC00"/>
<path d="M28.9001 12.6C28.0001 12.6 27.1001 13 26.4001 13.7C25.8001 14.3 25.4001 15.2 25.5001 16C25.6001 18 26.9001 19.3 28.8001 19.4H28.9001C30.7001 19.4 32.1001 18 32.2001 16C32.2001 14.1 30.8001 12.6 28.9001 12.6ZM28.9001 17.8C27.8001 17.8 27.1001 17.1 27.0001 15.9C27.0001 15.5 27.2001 15 27.5001 14.7C27.9001 14.3 28.4001 14.1 28.9001 14.1C29.9001 14.1 30.7001 14.9 30.7001 15.9C30.7001 17.2 29.9001 17.9 28.9001 17.8Z" fill="black"/>
<path d="M36.8 15.9C36.8 14.9 36.6 13.9 36.2 13L36.1 12.9C36.1 12.8 36 12.7 36 12.6C34.7 9.8 31.9 8 28.9 8C24.5 8 21 11.6 21 15.9C21 17.6 21.5 19.2 22.5 20.5C22.9 21.2 23.4 21.8 24 22.6L24.4 23.1C25.7 24.8 27 26.5 27.5 28.5C27.8 29.6 28.6 29.7 28.9 29.7C29.4 29.7 30 29.5 30.4 28.5L30.6 28C30.7 27.6 30.9 27.2 31 26.9C31.5 25.6 32.4 24.6 33.3 23.4L33.6 23.1C34.8 21.6 36 20.1 36.5 18.1C36.6 17.6 36.7 17.1 36.8 16.5C36.8 16.3 36.8 16 36.8 15.8V15.9ZM35.3 16C35.3 16.2 35.3 16.4 35.3 16.6C35.3 17 35.2 17.5 35.1 17.9C34.7 19.6 33.6 20.9 32.5 22.3L32.2 22.6C31.3 23.8 30.3 25 29.7 26.4C29.5 26.8 29.4 27.2 29.2 27.6L29 28.2C28.4 25.9 27 24 25.6 22.3L25.2 21.8C24.6 21 24.2 20.4 23.8 19.7C23 18.6 22.5 17.3 22.5 15.9C22.5 12.4 25.4 9.5 28.9 9.5C31.4 9.5 33.6 10.9 34.7 13.2L34.9 13.5C35.2 14.2 35.4 15 35.4 15.9L35.3 16Z" fill="black"/>
</svg>
