<svg width="56" height="40" viewBox="0 0 56 40" fill="none" xmlns="http://www.w3.org/2000/svg">
<g clip-path="url(#clip0_129_437)">
<path d="M18.1 40C12.7 39.8 7.7 37.3 4.2 33.1C1.6 29.9 0.1 25.9 0 21.7H3.6C3.7 24.9 4.8 27.8 6.7 30.3C9.5 33.9 13.6 36 18.1 36.3V40Z" fill="#FFDC00"/>
<path d="M55.9 20.1L52.3 19.7C52.6 15.2 50.9 10.9 47.7 7.7C45.4 5.5 42.6 4.1 39.5 3.6L39.9 0C44 0.6 47.8 2.6 50.7 5.6C54.4 9.5 56.3 14.7 55.9 20.1Z" fill="#FFDC00"/>
<path d="M38.5 16.9C37.7999 13.8 35.4 11.5 32.2999 10.7C30.1999 10.2 28 10.2 25.9 10.7C22.8 11.4 20.5 13.8 19.7 16.9C19.2 19 19.2 21.2 19.7 23.3C20.4 26.4 22.8 28.7 25.9 29.5C28 30 30.1999 30 32.2999 29.5C35.4 28.8 37.7 26.4 38.5 23.3C39 21.2 39 19 38.5 16.9ZM37 23C36.4 25.5 34.5 27.5 32 28C30.1 28.4 28.1 28.4 26.2 28C23.7 27.4 21.7 25.5 21.2 23C20.8 21.1 20.8 19.1 21.2 17.2C21.8 14.7 23.7 12.7 26.2 12.2C28.1 11.8 30.1 11.8 32 12.2C34.5 12.8 36.5 14.7 37 17.2C37.5 19.1 37.5 21.1 37 23Z" fill="black"/>
<path d="M30.2999 22.5H28.2C27.9 22.5 27.7 22.8 27.7 23.3C27.7 23.8 28 24 28.2 24H30.2999C30.5999 24 30.7999 23.7 30.7999 23.2C30.7999 22.7 30.5999 22.5 30.2999 22.5Z" fill="black"/>
<path d="M34 18.7C33.5 18.2 33 17.7 32.4 17.4C31.2 16.7 29.9 16.4 28.5 16.6C27.6 16.7 26.8 16.9 26 17.3C25.3 17.7 24.7 18.1 24.2 18.7C24.1 18.8 24 19 24 19.2C24 19.3 24 19.3 24 19.4C24.1 19.9 24.8 20.2 25.2 19.7C25.3 19.6 25.4 19.5 25.5 19.4C26.3 18.6 27.3 18.1 28.5 17.9C29.7 17.8 30.8 18 31.8 18.6C32.3 18.9 32.7 19.2 33 19.6C33.1 19.7 33.2 19.8 33.3 19.8C33.6 19.9 33.9 19.8 34.1 19.5C34.3 19.2 34.3 18.9 34 18.7Z" fill="black"/>
<path d="M31.2 19.5C30.6 19.1 29.9 19 29.2 18.9C28.9 18.9 28.6 19 28.4 19C27.4 19.2 26.6 19.8 26 20.6C25.8 20.9 25.8 21.3 26.1 21.6C26.4 21.9 26.8 21.9 27.1 21.7C27.3 21.6 27.4 21.4 27.6 21.3C27.7 21.2 27.9 21 28.1 20.9C29.1 20.3 30.2 20.4 31 21.2C31.2 21.3 31.3 21.5 31.4 21.6C31.7 21.8 32.1 21.8 32.4 21.5C32.7 21.2 32.7 20.8 32.5 20.5C32 20.1 31.6 19.8 31.2 19.5Z" fill="black"/>
</g>
<defs>
<clipPath id="clip0_129_437">
<rect width="56" height="40" fill="white"/>
</clipPath>
</defs>
</svg>
