<svg width="56" height="40" viewBox="0 0 56 40" fill="none" xmlns="http://www.w3.org/2000/svg">
<path d="M18.1 40C12.7 39.8 7.7 37.3 4.2 33.1C1.6 29.9 0.1 25.9 0 21.7H3.6C3.7 24.9 4.8 27.8 6.7 30.3C9.5 33.9 13.6 36 18.1 36.3V40Z" fill="#FFDC00"/>
<path d="M55.9 20.1L52.3 19.7C52.6 15.2 50.9 10.9 47.7 7.7C45.4 5.5 42.6 4.1 39.5 3.6L39.9 0C44 0.6 47.8 2.6 50.7 5.6C54.4 9.5 56.3 14.7 55.9 20.1Z" fill="#FFDC00"/>
<path d="M31.4 17.7L28.8 19.5C28.3 19.9 27.6 19.9 27.1 19.5L24.5 17.7C24.2 17.5 23.7 17.5 23.5 17.9C23.3 18.2 23.3 18.7 23.7 18.9L26.3 20.7C27.3 21.4 28.7 21.4 29.7 20.7L32.3 18.9C32.6 18.7 32.7 18.2 32.5 17.9C32.3 17.6 31.8 17.5 31.4 17.7Z" fill="black"/>
<path d="M37.9 16.7C37.2 13.7 34.8 11.4 31.8 10.7L31.3 10.6C29.1 10.1 26.9 10.1 24.7 10.6L24.2 10.7C21.2 11.4 18.8 13.7 18.1 16.7C17.6 18.9 17.6 21.2 18.1 23.4C18.8 26.4 21.2 28.7 24.2 29.4L24.7 29.5C26.9 30 29.1 30 31.3 29.5L31.8 29.4C34.8 28.7 37.2 26.4 37.9 23.4C38.4 21.1 38.4 18.9 37.9 16.7ZM31.4 27.8L31 27.9C29.1 28.3 27 28.3 25.1 27.9L24.6 27.8C22.2 27.3 20.2 25.4 19.6 22.9C19.1 20.9 19.1 18.9 19.6 17C20.2 14.6 22.1 12.7 24.6 12.1L25.1 12C27 11.6 29.1 11.6 31 12L31.5 12.1C33.9 12.6 35.9 14.5 36.5 17C37 19 37 21 36.5 22.9C35.8 25.4 33.9 27.3 31.4 27.8Z" fill="black"/>
</svg>
