<svg width="18" height="12" viewBox="0 0 18 12" fill="none" xmlns="http://www.w3.org/2000/svg">
<path d="M17.0688 1.90625C16.8813 1.15625 16.2875 0.5625 15.5688 0.375C14.225 0 8.9125 0 8.9125 0C8.9125 0 3.56875 0 2.225 0.375C1.50625 0.5625 0.9125 1.15625 0.725 1.90625C0.35 3.21875 0.35 6.03125 0.35 6.03125C0.35 6.03125 0.35 8.8125 0.725 10.1562C0.9125 10.9062 1.50625 11.4688 2.225 11.6562C3.56875 12 8.9125 12 8.9125 12C8.9125 12 14.225 12 15.5688 11.6562C16.2875 11.4688 16.8813 10.9062 17.0688 10.1562C17.4438 8.8125 17.4438 6.03125 17.4438 6.03125C17.4438 6.03125 17.4438 3.21875 17.0688 1.90625ZM7.1625 8.5625V3.5L11.6 6.03125L7.1625 8.5625Z" fill="#FFDC00"/>
</svg>
