<svg width="56" height="40" viewBox="0 0 56 40" fill="none" xmlns="http://www.w3.org/2000/svg">
<g clip-path="url(#clip0_129_432)">
<path d="M18.1 40C12.7 39.8 7.7 37.3 4.2 33.1C1.6 29.9 0.1 25.9 0 21.7H3.6C3.7 24.9 4.8 27.8 6.7 30.3C9.5 33.9 13.6 36 18.1 36.3V40Z" fill="#FFDC00"/>
<path d="M55.9 20.1L52.3 19.7C52.6 15.2 50.9 10.9 47.7 7.7C45.4 5.5 42.6 4.1 39.5 3.6L39.9 0C44 0.6 47.8 2.6 50.7 5.6C54.4 9.5 56.3 14.7 55.9 20.1Z" fill="#FFDC00"/>
<path d="M38.4001 15.5C37.5001 15 36.5001 15 35.7001 15.6L34.8001 16.1C34.3001 14.2 32.8001 12.7 30.9001 12.3C28.5001 11.7 26.0001 11.7 23.6001 12.3C21.6001 12.8 20.2001 14.3 19.7001 16.2L19.6001 16.5C19.1001 18.9 19.1001 21.4 19.6001 23.7L19.7001 24C20.1001 26 21.6001 27.5 23.6001 27.9C24.8001 28.2 26.0001 28.3 27.2001 28.3C28.4001 28.3 29.7001 28.2 30.9001 27.9C32.7001 27.5 34.1001 26.2 34.7001 24.5L35.9001 25.1C36.3001 25.3 36.7001 25.4 37.1001 25.4C37.6001 25.4 38.1001 25.3 38.5001 25C39.3001 24.5 39.8001 23.7 39.8001 22.7V18C39.8001 16.8 39.3001 16 38.4001 15.5ZM30.5001 26.4C28.3001 26.9 26.1001 26.9 23.9001 26.4C22.5001 26.1 21.4001 25 21.1001 23.6L21.0001 23.3C20.5001 21.2 20.5001 18.9 21.0001 16.7L21.1001 16.4C21.4001 15 22.5001 13.9 23.9001 13.6C25.0001 13.3 26.1001 13.2 27.2001 13.2C28.3001 13.2 29.4001 13.3 30.5001 13.6C31.9001 13.9 33.0001 15 33.3001 16.4V16.5C33.4001 17 33.5001 17.4 33.6001 17.9C33.6001 18.1 33.7001 18.3 33.7001 18.5C33.7001 18.9 33.8001 19.3 33.8001 19.7C33.8001 19.8 33.8001 20 33.8001 20.1C33.8001 21.2 33.7001 22.4 33.4001 23.5V23.6C33.0001 25 31.9001 26 30.5001 26.4ZM38.3001 22.5C38.3001 22.9 38.1001 23.3 37.7001 23.5C37.3001 23.7 36.9001 23.7 36.5001 23.6L35.0001 22.9C35.0001 22.8 35.0001 22.8 35.0001 22.7C35.1001 22.4 35.1001 22.1 35.1001 21.8C35.1001 21.6 35.1001 21.5 35.1001 21.3C35.1001 21.1 35.1001 20.8 35.1001 20.6C35.1001 20.4 35.1001 20.3 35.1001 20.1C35.1001 19.7 35.1001 19.4 35.1001 19C35.1001 18.9 35.1001 18.8 35.1001 18.7C35.1001 18.4 35.0001 18.1 35.0001 17.8C35.0001 17.7 35.0001 17.7 35.0001 17.6L36.3001 16.8C36.7001 16.6 37.1001 16.6 37.5001 16.8C37.9001 17 38.1001 17.4 38.1001 17.8V22.5H38.3001Z" fill="black"/>
</g>
<defs>
<clipPath id="clip0_129_432">
<rect width="56" height="40" fill="white"/>
</clipPath>
</defs>
</svg>
